# https://github.com/mikedh/trimesh
mtllib material.mtl
usemtl Silverware_MatMain
v -0.01014018 0.00141991 0.02116652
v 0.08237464 0.00301362 0.01879624
v 0.08237464 0.00301362 0.01879624
v -0.01014018 0.00141991 0.00805398
v 0.08237463 0.00301362 0.01042426
v 0.08237463 0.00301362 0.01042426
v -0.02322549 -0.00179456 0.02746617
v -0.02322549 -0.00179456 0.00175433
v -0.03566584 -0.00100773 0.02693659
v -0.03566585 -0.00100773 0.00228391
v -0.05231767 0.00277590 0.02024341
v -0.05231767 0.00277590 0.00897709
v -0.00648143 0.00257562 0.01716855
v -0.00648143 0.00257562 0.01205195
v 0.07671243 0.00269571 0.02058921
v 0.07671243 0.00269571 0.00863129
v -0.01012683 0.00121107 0.01215382
v -0.01012683 0.00121107 0.01706668
v 0.08338518 0.00332759 0.01615449
v 0.08338517 0.00332759 0.01306601
v -0.02328669 -0.00431253 0.00977981
v -0.02328669 -0.00431253 0.01944069
v -0.03612691 -0.00351125 0.00997586
v -0.03612691 -0.00351125 0.01924464
v -0.05397809 0.00300529 0.01254924
v -0.05397809 0.00300529 0.01667126
v -0.00651636 0.00257398 0.01556898
v -0.00651636 0.00257398 0.01365152
v 0.07686991 0.00282344 0.01685162
v 0.07686991 0.00282344 0.01236888
v 0.05760402 0.00305254 0.01019147
v 0.05760402 0.00305254 0.01902903
v 0.05760747 0.00310414 0.01626719
v 0.05760747 0.00310414 0.01295331
v -0.00169867 0.00523481 0.01265923
v -0.00169867 0.00523481 0.01265923
v -0.00173036 0.00526701 0.01534188
v -0.00173036 0.00526701 0.01387862
v -0.00169867 0.00523481 0.01656127
v -0.00169867 0.00523481 0.01656127
v -0.01482010 0.00008992 0.00387353
v -0.01482010 0.00008992 0.02534697
v -0.01461753 -0.00129812 0.01863906
v -0.01461753 -0.00129812 0.01058144
v -0.04658270 0.00121942 0.00523347
v -0.04658270 0.00121942 0.02398703
v -0.04765169 -0.00015847 0.01813456
v -0.04765170 -0.00015847 0.01108594
v 0.02943802 0.00466671 0.01704749
v 0.02943802 0.00466671 0.01704749
v 0.02943802 0.00466671 0.01217301
v 0.02943802 0.00466671 0.01217301
v 0.02943975 0.00471351 0.01552421
v 0.02943975 0.00471351 0.01369629
v -0.00990178 0.00083542 0.02120428
v 0.08263422 0.00161217 0.01882670
v 0.08263422 0.00161217 0.01882670
v -0.00990178 0.00083542 0.00801622
v 0.08263422 0.00161217 0.01039380
v 0.08263422 0.00161217 0.01039380
v -0.02310326 -0.00236054 0.02761034
v -0.02310326 -0.00236054 0.00161016
v -0.03576340 -0.00157120 0.02710332
v -0.03576341 -0.00157120 0.00211718
v -0.05262627 0.00234533 0.02036707
v -0.05262627 0.00234533 0.00885343
v -0.00618321 0.00181350 0.01717414
v -0.00618321 0.00181350 0.01204636
v 0.07683880 0.00112237 0.02060762
v 0.07683880 0.00112237 0.00861289
v -0.00985138 0.00052129 0.01213686
v -0.00985138 0.00052129 0.01708364
v 0.08367325 0.00181411 0.01616983
v 0.08367325 0.00181411 0.01305067
v -0.02312929 -0.00500481 0.00969943
v -0.02312929 -0.00500481 0.01952107
v -0.03624832 -0.00420558 0.00988196
v -0.03624831 -0.00420558 0.01933854
v -0.05433776 0.00251894 0.01249238
v -0.05433776 0.00251894 0.01672812
v -0.00612791 0.00175480 0.01557122
v -0.00612791 0.00175480 0.01364928
v 0.07704068 0.00102851 0.01686334
v 0.07704069 0.00102851 0.01235716
v 0.05757102 0.00162589 0.01018872
v 0.05757103 0.00162589 0.01903178
v 0.05757344 0.00149471 0.01626929
v 0.05757344 0.00149471 0.01295121
v -0.00137810 0.00400316 0.01265923
v -0.00137810 0.00400316 0.01265923
v -0.00133185 0.00389526 0.01534188
v -0.00133185 0.00389526 0.01387862
v -0.00137810 0.00400316 0.01656127
v -0.00137810 0.00400316 0.01656127
v -0.01457413 -0.00045933 0.00378122
v -0.01457413 -0.00045933 0.02543928
v -0.01431927 -0.00196367 0.01868742
v -0.01431927 -0.00196367 0.01053308
v -0.04683150 0.00069530 0.00507281
v -0.04683150 0.00069530 0.02414769
v -0.04796907 -0.00080091 0.01822190
v -0.04796906 -0.00080091 0.01099860
v 0.02942088 0.00328796 0.01704749
v 0.02942088 0.00328796 0.01704749
v 0.02942088 0.00328796 0.01217301
v 0.02942088 0.00328796 0.01217301
v 0.02941984 0.00316109 0.01552421
v 0.02941984 0.00316109 0.01369629
v 0.00535700 0.00583827 0.01259302
v 0.00535700 0.00583827 0.01259302
v 0.00533316 0.00588256 0.01536671
v 0.00533317 0.00588256 0.01385379
v 0.00535700 0.00583827 0.01662748
v 0.00535700 0.00583827 0.01662748
v 0.00559659 0.00448494 0.01259302
v 0.00559659 0.00448494 0.01259302
v 0.00562561 0.00436167 0.01536671
v 0.00562561 0.00436167 0.01385379
v 0.00559659 0.00448494 0.01662748
v 0.00559659 0.00448494 0.01662748
v -0.01002895 0.00118690 0.02200762
v -0.01002895 0.00118690 0.02200762
v 0.08273865 0.00231940 0.01881956
v 0.08273865 0.00231940 0.01881956
v -0.01002895 0.00118690 0.00721288
v -0.01002895 0.00118690 0.00721288
v 0.08273865 0.00231940 0.01040095
v 0.08273865 0.00231940 0.01040095
v -0.02315347 -0.00143227 0.02914456
v -0.02315347 -0.00143227 0.02914456
v -0.02315347 -0.00143227 0.00007594
v -0.02315347 -0.00143227 0.00007594
v -0.03559638 -0.00064723 0.02855930
v -0.03559638 -0.00064723 0.02855930
v -0.03559638 -0.00064723 0.00066121
v -0.03559638 -0.00064723 0.00066121
v -0.05283623 0.00275049 0.02028124
v -0.05283623 0.00275049 0.02028124
v -0.05283622 0.00275049 0.00893926
v -0.05283622 0.00275049 0.00893926
v -0.00633487 0.00217141 0.01749172
v -0.00633487 0.00217141 0.01749172
v -0.00633487 0.00217141 0.01172878
v -0.00633487 0.00217141 0.01172878
v 0.07673069 0.00186797 0.02134622
v 0.07673069 0.00186797 0.02134622
v 0.07673069 0.00186797 0.00787428
v 0.07673069 0.00186797 0.00787428
v 0.08432685 0.00270840 0.01594705
v 0.08432685 0.00270840 0.01594705
v 0.08432684 0.00270840 0.01327345
v 0.08432684 0.00270840 0.01327345
v -0.05523417 0.00341598 0.01284324
v -0.05523417 0.00341598 0.01284324
v -0.05523417 0.00341598 0.01637726
v -0.05523417 0.00341598 0.01637726
v 0.05758679 0.00231233 0.00963776
v 0.05758679 0.00231233 0.00963776
v 0.05758680 0.00231233 0.01958274
v 0.05758680 0.00231233 0.01958274
v -0.00154021 0.00459161 0.01241535
v -0.00154021 0.00459161 0.01241535
v -0.00154020 0.00459161 0.01680515
v -0.00154020 0.00459161 0.01680515
v -0.01475429 0.00017684 0.00248355
v -0.01475429 0.00017684 0.00248355
v -0.01475429 0.00017684 0.02673695
v -0.01475429 0.00017684 0.02673695
v -0.04643128 0.00131662 0.00398024
v -0.04643128 0.00131662 0.00398024
v -0.04643128 0.00131662 0.02524025
v -0.04643128 0.00131662 0.02524025
v 0.02942936 0.00395051 0.01735214
v 0.02942936 0.00395051 0.01735214
v 0.02942936 0.00395051 0.01186836
v 0.02942936 0.00395051 0.01186836
v 0.00547615 0.00513464 0.01687964
v 0.00547615 0.00513464 0.01687964
v 0.00547615 0.00513464 0.01234087
v 0.00547615 0.00513464 0.01234087
v -0.01014255 0.00133836 0.01942194
v 0.08087281 0.00288024 0.01982380
v 0.08293106 0.00320588 0.01156251
v -0.00841423 0.00183309 0.01035339
v -0.02326057 -0.00303245 0.02405345
v -0.01842675 -0.00100308 0.00249686
v -0.01215830 0.00090210 0.02342871
v -0.03589276 -0.00223854 0.02366569
v -0.02924153 -0.00173909 0.00169312
v -0.02924153 -0.00173909 0.02752738
v -0.05325194 0.00293284 0.01868514
v -0.05029209 0.00220649 0.00735444
v -0.04159506 0.00006650 0.02574154
v -0.00841423 0.00183309 0.01886711
v -0.00403677 0.00391829 0.01266578
v -0.00403677 0.00391829 0.01266578
v -0.00650978 0.00260851 0.01273219
v 0.06881436 0.00270355 0.02016851
v 0.08087280 0.00288024 0.00939670
v 0.07678662 0.00282451 0.01022066
v -0.01014255 0.00133836 0.00979856
v -0.01011980 0.00116048 0.01461025
v 0.08293106 0.00320588 0.01765799
v 0.08354343 0.00336588 0.01461025
v -0.02326057 -0.00303245 0.00516705
v -0.02329593 -0.00479520 0.01461025
v -0.03589276 -0.00223854 0.00555481
v -0.03621516 -0.00399114 0.01461025
v -0.05325194 0.00293284 0.01053536
v -0.05422621 0.00302468 0.01461025
v -0.00650977 0.00260851 0.01648831
v -0.00651746 0.00255682 0.01461025
v 0.07678662 0.00282451 0.01899985
v 0.07690172 0.00281492 0.01461025
v -0.00406856 0.00392928 0.01533935
v -0.00406856 0.00392928 0.01388115
v -0.00844960 0.00181415 0.01620480
v -0.00844960 0.00181415 0.01301570
v -0.05156101 0.00167417 0.01733034
v -0.05156101 0.00167417 0.01189016
v -0.02947855 -0.00440739 0.01946555
v -0.02947855 -0.00440739 0.00975495
v -0.01831302 -0.00305075 0.01915901
v -0.01831302 -0.00305075 0.01006149
v 0.08137652 0.00312629 0.01656396
v 0.08137651 0.00312629 0.01265654
v 0.06881436 0.00270355 0.00905199
v 0.04401217 0.00378949 0.01787743
v 0.04401217 0.00378949 0.01787743
v 0.06883274 0.00277081 0.01669425
v 0.06883273 0.00277081 0.01252625
v 0.05760747 0.00308405 0.01461025
v 0.05760704 0.00313787 0.01785512
v 0.05760704 0.00313787 0.01136538
v 0.00044563 0.00585601 0.01260897
v 0.00044563 0.00585601 0.01260897
v 0.00041530 0.00589827 0.01536073
v 0.00041530 0.00589827 0.01385977
v -0.00403677 0.00391829 0.01655472
v -0.00403677 0.00391829 0.01655472
v -0.00172640 0.00530317 0.01317747
v -0.00172640 0.00530317 0.01604303
v -0.00173036 0.00524692 0.01461025
v -0.01215830 0.00090210 0.00579179
v -0.01842675 -0.00100308 0.02672364
v -0.01202570 0.00019226 0.01791660
v -0.01202570 0.00019226 0.01130390
v -0.01457495 -0.00156864 0.01461025
v -0.01472801 -0.00058356 0.02249364
v -0.01472801 -0.00058357 0.00672686
v -0.04159506 0.00006650 0.00347896
v -0.05029209 0.00220649 0.02186606
v -0.04237051 -0.00199516 0.01879583
v -0.04237051 -0.00199516 0.01042467
v -0.04785672 -0.00042659 0.01461025
v -0.04710806 0.00054999 0.02149671
v -0.04710806 0.00054999 0.00772379
v 0.01564151 0.00539806 0.01669384
v 0.01564151 0.00539806 0.01669384
v 0.04401217 0.00378949 0.01134307
v 0.04401217 0.00378949 0.01134307
v 0.04401815 0.00383739 0.01583543
v 0.04401815 0.00383739 0.01338507
v 0.02943954 0.00474784 0.01282040
v 0.02943953 0.00474784 0.01640010
v 0.02943975 0.00469342 0.01461025
v -0.00986753 0.00065716 0.01945463
v 0.08109715 0.00132909 0.01985233
v 0.08109715 0.00132909 0.01985233
v 0.08322261 0.00169757 0.01153455
v -0.00815132 0.00119989 0.01033541
v -0.02311180 -0.00370377 0.02418981
v -0.01822171 -0.00155835 0.00237628
v -0.01191401 0.00034283 0.02349224
v -0.03600947 -0.00290934 0.02382410
v -0.02922978 -0.00230853 0.00153353
v -0.02922977 -0.00230853 0.02768697
v -0.05360027 0.00246156 0.01879096
v -0.05059509 0.00171953 0.00720648
v -0.04177655 -0.00048176 0.02590807
v -0.00815132 0.00119989 0.01888509
v -0.00371908 0.00291621 0.01266509
v -0.00614468 0.00175881 0.01272756
v 0.06884735 0.00119745 0.02017735
v 0.08109715 0.00132909 0.00936817
v 0.08109715 0.00132909 0.00936817
v 0.07694431 0.00102055 0.01020217
v -0.00986753 0.00065716 0.00976587
v -0.00984645 0.00047299 0.01461025
v 0.08322261 0.00169757 0.01768595
v 0.08382666 0.00186022 0.01461025
v -0.02311179 -0.00370377 0.00503069
v -0.02313642 -0.00549006 0.01461025
v -0.03600948 -0.00290934 0.00539640
v -0.03633742 -0.00468906 0.01461025
v -0.05360027 0.00246156 0.01042954
v -0.05458728 0.00253519 0.01461025
v -0.00614468 0.00175881 0.01649294
v -0.00612298 0.00175646 0.01461025
v 0.07694431 0.00102055 0.01901833
v 0.07707626 0.00103836 0.01461025
v -0.00365989 0.00283584 0.01533963
v -0.00365989 0.00283584 0.01388087
v -0.00812376 0.00110832 0.01621223
v -0.00812376 0.00110832 0.01300827
v -0.05193924 0.00107799 0.01740598
v -0.05193925 0.00107799 0.01181452
v -0.02945945 -0.00510774 0.01955531
v -0.02945945 -0.00510774 0.00966519
v -0.01805644 -0.00372582 0.01922476
v -0.01805644 -0.00372582 0.00999574
v 0.08164554 0.00134109 0.01657952
v 0.08164554 0.00134109 0.01264098
v 0.06884735 0.00119745 0.00904315
v 0.04395244 0.00239971 0.01787777
v 0.06889004 0.00106586 0.01670071
v 0.06889004 0.00106586 0.01251978
v 0.05757453 0.00149485 0.01461025
v 0.05757094 0.00151081 0.01785814
v 0.05757094 0.00151081 0.01136236
v 0.00075072 0.00452320 0.01260897
v 0.00075072 0.00452320 0.01260897
v 0.00078829 0.00440262 0.01536073
v 0.00078830 0.00440262 0.01385977
v -0.00371908 0.00291621 0.01655541
v -0.00134309 0.00390700 0.01317747
v -0.00134309 0.00390700 0.01604303
v -0.00132912 0.00389614 0.01461025
v -0.01191400 0.00034283 0.00572826
v -0.01822172 -0.00155835 0.02684422
v -0.01174189 -0.00048390 0.01794784
v -0.01174189 -0.00048390 0.01127266
v -0.01427608 -0.00223547 0.01461025
v -0.01443751 -0.00123204 0.02257866
v -0.01443751 -0.00123204 0.00664184
v -0.04177655 -0.00048176 0.00331243
v -0.05059508 0.00171953 0.02201402
v -0.04260241 -0.00266867 0.01888903
v -0.04260242 -0.00266867 0.01033147
v -0.04817778 -0.00107169 0.01461025
v -0.04740943 -0.00007233 0.02164703
v -0.04740943 -0.00007233 0.00757347
v 0.01574905 0.00403195 0.01669384
v 0.01574905 0.00403195 0.01669384
v 0.04395244 0.00239971 0.01134273
v 0.04394654 0.00227161 0.01583569
v 0.04394654 0.00227161 0.01338481
v 0.02941971 0.00317684 0.01282040
v 0.02941971 0.00317684 0.01640010
v 0.02941997 0.00316114 0.01461025
v -0.00995878 0.00101244 0.02191705
v -0.00995878 0.00101244 0.02191705
v 0.08278658 0.00188994 0.01883034
v 0.08278658 0.00188994 0.01883034
v -0.00995878 0.00101244 0.00730345
v -0.00995878 0.00101244 0.00730345
v 0.08278658 0.00188994 0.01039016
v 0.08278658 0.00188994 0.01039016
v -0.02312033 -0.00167488 0.02898880
v -0.02312033 -0.00167488 0.02898880
v -0.02312033 -0.00167488 0.00023170
v -0.02312033 -0.00167488 0.00023170
v -0.03563895 -0.00088843 0.02841885
v -0.03563895 -0.00088843 0.02841885
v -0.03563896 -0.00088843 0.00080165
v -0.03563896 -0.00088843 0.00080165
v -0.05287288 0.00258745 0.02032794
v -0.05287288 0.00258745 0.02032794
v -0.05287288 0.00258745 0.00889256
v -0.05287288 0.00258745 0.00889256
v -0.00625062 0.00195791 0.01745351
v -0.00625062 0.00195791 0.01745351
v -0.00625062 0.00195791 0.01176699
v -0.00625062 0.00195791 0.01176699
v 0.07677152 0.00142531 0.02125834
v 0.07677152 0.00142531 0.02125834
v 0.07677152 0.00142531 0.00796216
v 0.07677152 0.00142531 0.00796216
v 0.08431790 0.00226771 0.01597862
v 0.08431790 0.00226771 0.01597862
v 0.08431790 0.00226771 0.01324188
v 0.08431790 0.00226771 0.01324188
v -0.05520806 0.00319732 0.01278767
v -0.05520806 0.00319732 0.01278767
v -0.05520806 0.00319732 0.01643283
v -0.05520806 0.00319732 0.01643283
v 0.05757707 0.00190950 0.00970600
v 0.05757707 0.00190950 0.00970600
v 0.05757707 0.00190950 0.01951450
v 0.05757707 0.00190950 0.01951450
v -0.00144864 0.00424469 0.01244584
v -0.00144864 0.00424469 0.01244584
v -0.00144863 0.00424469 0.01677466
v -0.00144863 0.00424469 0.01677466
v -0.01467662 -0.00002588 0.00262239
v -0.01467662 -0.00002588 0.00262239
v -0.01467661 -0.00002588 0.02659811
v -0.01467661 -0.00002588 0.02659811
v -0.04653618 0.00112183 0.00407645
v -0.04653618 0.00112183 0.00407645
v -0.04653618 0.00112183 0.02514405
v -0.04653618 0.00112183 0.02514405
v 0.02942441 0.00356148 0.01731406
v 0.02942441 0.00356148 0.01731406
v 0.02942441 0.00356148 0.01190644
v 0.02942441 0.00356148 0.01190644
v 0.01564151 0.00539806 0.01252666
v 0.01564151 0.00539806 0.01252666
v 0.01563083 0.00544361 0.01539160
v 0.01563083 0.00544361 0.01382890
v 0.00044563 0.00585601 0.01661153
v 0.00044563 0.00585601 0.01661153
v 0.01574905 0.00403195 0.01252666
v 0.01574905 0.00403195 0.01252666
v 0.01576276 0.00390686 0.01539160
v 0.01576276 0.00390686 0.01382890
v 0.00075072 0.00452320 0.01661153
v 0.00075072 0.00452320 0.01661153
v 0.00554482 0.00475287 0.01684812
v 0.00554482 0.00475287 0.01684812
v 0.00554482 0.00475287 0.01237238
v 0.00554482 0.00475287 0.01237238
v 0.00562659 0.00436193 0.01461025
v 0.00562004 0.00437656 0.01609165
v 0.00562004 0.00437656 0.01312885
v 0.00533316 0.00586247 0.01461025
v 0.00533614 0.00591721 0.01609165
v 0.00533614 0.00591721 0.01312885
v -0.01009712 0.00134990 0.02189263
v -0.01009712 0.00134990 0.02189263
v 0.08261218 0.00276414 0.01880898
v 0.08261218 0.00276414 0.01880898
v -0.01009712 0.00134990 0.00732787
v -0.01009712 0.00134990 0.00732787
v 0.08261218 0.00276414 0.01041152
v 0.08261218 0.00276414 0.01041152
v -0.02318934 -0.00135099 0.02889875
v -0.02318934 -0.00135099 0.02889875
v -0.02318934 -0.00135099 0.00032175
v -0.02318934 -0.00135099 0.00032175
v -0.03558336 -0.00056659 0.02831490
v -0.03558336 -0.00056659 0.02831490
v -0.03558336 -0.00056659 0.00090560
v -0.03558336 -0.00056659 0.00090560
v -0.05267500 0.00285197 0.02024709
v -0.05267500 0.00285197 0.02024709
v -0.05267499 0.00285197 0.00897341
v -0.05267499 0.00285197 0.00897341
v -0.00641848 0.00240743 0.01744984
v -0.00641848 0.00240743 0.01744984
v -0.00641848 0.00240743 0.01177066
v -0.00641848 0.00240743 0.01177066
v 0.07670111 0.00234100 0.02124714
v 0.07670111 0.00234100 0.02124714
v 0.07670110 0.00234100 0.00797336
v 0.07670110 0.00234100 0.00797336
v 0.08413639 0.00313478 0.01596926
v 0.08413639 0.00313478 0.01596926
v 0.08413639 0.00313478 0.01325124
v 0.08413639 0.00313478 0.01325124
v -0.05499121 0.00347118 0.01281821
v -0.05499121 0.00347118 0.01281821
v -0.05499121 0.00347118 0.01640229
v -0.05499121 0.00347118 0.01640229
v 0.05759670 0.00274197 0.00970761
v 0.05759670 0.00274197 0.00970761
v 0.05759670 0.00274197 0.01951289
v 0.05759670 0.00274197 0.01951289
v -0.00163132 0.00496547 0.01244584
v -0.00163132 0.00496547 0.01244584
v -0.00163132 0.00496547 0.01677466
v -0.00163132 0.00496547 0.01677466
v -0.01481768 0.00028918 0.00268068
v -0.01481768 0.00028918 0.00268068
v -0.01481768 0.00028918 0.02653982
v -0.01481768 0.00028918 0.02653982
v -0.04639535 0.00142160 0.00417726
v -0.04639535 0.00142160 0.00417726
v -0.04639535 0.00142160 0.02504324
v -0.04639535 0.00142160 0.02504324
v 0.02943434 0.00436634 0.01731406
v 0.02943434 0.00436634 0.01731406
v 0.02943434 0.00436634 0.01190644
v 0.02943434 0.00436634 0.01190644
v 0.00540763 0.00554325 0.01684812
v 0.00540763 0.00554325 0.01684812
v 0.00540764 0.00554325 0.01237238
v 0.00540764 0.00554325 0.01237238
v 0.00059727 0.00516257 0.01235881
v 0.00059727 0.00516257 0.01235881
v 0.01569490 0.00468811 0.01695429
v 0.01569490 0.00468811 0.01695429
v 0.04398229 0.00306779 0.01093450
v 0.04398229 0.00306779 0.01093450
v 0.00059727 0.00516257 0.01686169
v 0.00059727 0.00516257 0.01686169
v -0.05020837 0.00213591 0.02277076
v -0.05020837 0.00213591 0.02277076
v -0.04148564 0.00032344 0.00200533
v -0.04148564 0.00032344 0.00200533
v -0.01835911 -0.00075383 0.02829857
v -0.01835911 -0.00075383 0.02829857
v -0.01207424 0.00081377 0.00465509
v -0.01207424 0.00081377 0.00465509
v -0.00388135 0.00338986 0.01679820
v -0.00388135 0.00338986 0.01679820
v -0.00388135 0.00338986 0.01679820
v -0.00388135 0.00338986 0.01679820
v 0.01569490 0.00468811 0.01226621
v 0.01569490 0.00468811 0.01226621
v 0.04398229 0.00306779 0.01828600
v 0.04398229 0.00306779 0.01828600
v 0.06882323 0.00192171 0.00835277
v 0.06882323 0.00192171 0.00835277
v -0.05548698 0.00349640 0.01461025
v -0.05548698 0.00349640 0.01461025
v -0.05442880 0.00317197 0.01102735
v -0.05442880 0.00317197 0.01102735
v 0.08451302 0.00276097 0.01461025
v 0.08451302 0.00276097 0.01461025
v 0.08375597 0.00255463 0.01730898
v 0.08375597 0.00255463 0.01730898
v 0.08090859 0.00204749 0.00878522
v 0.08090859 0.00204749 0.00878522
v 0.08090859 0.00204749 0.00878522
v 0.06882323 0.00192171 0.02086773
v 0.06882323 0.00192171 0.02086773
v -0.00388135 0.00338986 0.01242230
v -0.00388135 0.00338986 0.01242230
v -0.00388135 0.00338986 0.01242230
v -0.00388135 0.00338986 0.01242230
v -0.00828180 0.00151189 0.01940994
v -0.00828180 0.00151189 0.01940994
v -0.00828180 0.00151189 0.01940994
v -0.00828180 0.00151189 0.01940994
v -0.04148564 0.00032344 0.02721517
v -0.04148564 0.00032344 0.02721517
v -0.05020837 0.00213591 0.00644974
v -0.05020837 0.00213591 0.00644974
v -0.05442880 0.00317197 0.01819315
v -0.05442880 0.00317197 0.01819315
v -0.02917731 -0.00134037 0.02922050
v -0.02917731 -0.00134037 0.02922050
v -0.02917731 -0.00134037 0.00000000
v -0.02917731 -0.00134037 0.00000000
v -0.01207424 0.00081377 0.02456541
v -0.01207424 0.00081377 0.02456541
v -0.01835911 -0.00075383 0.00092193
v -0.01835911 -0.00075383 0.00092193
v -0.00828180 0.00151189 0.00981056
v -0.00828180 0.00151189 0.00981056
v -0.00828180 0.00151189 0.00981056
v -0.00828180 0.00151189 0.00981056
v 0.08375597 0.00255463 0.01191152
v 0.08375597 0.00255463 0.01191152
v 0.08090860 0.00204749 0.02043528
v 0.08090860 0.00204749 0.02043528
v 0.08090860 0.00204749 0.02043528
v 0.08111945 0.00306558 0.01078140
v -0.01837747 -0.00200618 0.00571401
v -0.02936043 -0.00305205 0.00512118
v -0.05092354 0.00195984 0.00928595
v -0.00844167 0.00185041 0.01148616
v 0.06882248 0.00279969 0.01052896
v 0.06882249 0.00279969 0.01869154
v 0.06883671 0.00275217 0.01461025
v -0.00844167 0.00185041 0.01773434
v -0.00845135 0.00179720 0.01461025
v -0.05092352 0.00195984 0.01993455
v -0.05179715 0.00156371 0.01461025
v -0.02936043 -0.00305205 0.02409932
v -0.02952280 -0.00491828 0.01461025
v -0.01837747 -0.00200618 0.02350649
v -0.01828791 -0.00344506 0.01461025
v 0.08111944 0.00306558 0.01843910
v 0.08147182 0.00314098 0.01461025
v 0.04401815 0.00381730 0.01461025
v 0.04401740 0.00387159 0.01700956
v 0.04401740 0.00387159 0.01221094
v -0.00406431 0.00396736 0.01318237
v -0.00406431 0.00396736 0.01603813
v -0.00406870 0.00390956 0.01461025
v -0.01199620 0.00004865 0.01461025
v -0.01210125 0.00056821 0.02108354
v -0.01210125 0.00056821 0.00813696
v -0.04251923 -0.00239193 0.01461025
v -0.04197612 -0.00094393 0.02278756
v -0.04197611 -0.00094393 0.00643294
v 0.01563217 0.00547810 0.01308011
v 0.01563217 0.00547810 0.01614039
v 0.01563083 0.00542352 0.01461025
v 0.08138362 0.00128254 0.01075450
v -0.01813149 -0.00266282 0.00560105
v -0.02934422 -0.00372932 0.00496964
v -0.05128639 0.00138324 0.00915090
v -0.00812779 0.00113234 0.01147107
v 0.06886975 0.00107919 0.01051947
v 0.06886975 0.00107919 0.01870103
v 0.06889751 0.00106743 0.01461025
v -0.00812779 0.00113234 0.01774943
v -0.00812348 0.00110203 0.01461025
v -0.05128638 0.00138324 0.02006960
v -0.05217827 0.00096452 0.01461025
v -0.02934423 -0.00372932 0.02425086
v -0.02950271 -0.00562200 0.01461025
v -0.01813149 -0.00266282 0.02361945
v -0.01802924 -0.00412185 0.01461025
v 0.08138362 0.00128254 0.01846600
v 0.08174026 0.00136932 0.01461025
v 0.04394655 0.00227164 0.01461025
v 0.04394724 0.00228756 0.01700994
v 0.04394724 0.00228756 0.01221056
v -0.00367785 0.00284229 0.01318179
v -0.00367785 0.00284229 0.01603871
v -0.00365462 0.00283764 0.01461025
v -0.01171425 -0.00062850 0.01461025
v -0.01181869 -0.00009135 0.02114055
v -0.01181869 -0.00009135 0.00807996
v -0.04275393 -0.00306851 0.01461025
v -0.04219614 -0.00159562 0.02294535
v -0.04219614 -0.00159562 0.00627515
v 0.01575991 0.00392219 0.01308011
v 0.01575991 0.00392219 0.01614039
v 0.01576333 0.00390701 0.01461025
v 0.08097943 0.00160881 0.02037444
v 0.08097943 0.00160881 0.02037444
v 0.08097943 0.00160881 0.02037444
v 0.08097943 0.00160881 0.02037444
v 0.08376676 0.00211607 0.01186104
v 0.08376676 0.00211607 0.01186104
v -0.00820695 0.00133225 0.00987141
v -0.00820695 0.00133225 0.00987141
v -0.00820695 0.00133225 0.00987141
v -0.01829643 -0.00097881 0.00107345
v -0.01829643 -0.00097881 0.00107345
v -0.01199869 0.00062958 0.02444756
v -0.01199869 0.00062958 0.02444756
v -0.02918152 -0.00158851 0.00015190
v -0.02918152 -0.00158851 0.00015190
v -0.02918152 -0.00158851 0.02906860
v -0.02918152 -0.00158851 0.02906860
v -0.05441233 0.00297891 0.01828604
v -0.05441233 0.00297891 0.01828604
v -0.05031707 0.00197141 0.00649941
v -0.05031707 0.00197141 0.00649941
v -0.04156200 0.00010035 0.02709334
v -0.04156200 0.00010035 0.02709334
v -0.00820695 0.00133225 0.01934909
v -0.00820695 0.00133225 0.01934909
v -0.00820695 0.00133225 0.01934909
v -0.00379121 0.00310856 0.01245247
v -0.00379121 0.00310856 0.01245247
v -0.00379121 0.00310856 0.01245247
v 0.06883261 0.00149628 0.02078349
v 0.06883261 0.00149628 0.02078349
v 0.08097943 0.00160881 0.00884606
v 0.08097943 0.00160881 0.00884606
v 0.08097943 0.00160881 0.00884606
v 0.08097943 0.00160881 0.00884606
v 0.08376676 0.00211607 0.01735946
v 0.08376676 0.00211607 0.01735946
v 0.08449824 0.00232069 0.01461025
v 0.08449824 0.00232069 0.01461025
v -0.05441233 0.00297891 0.01093446
v -0.05441233 0.00297891 0.01093446
v -0.05546060 0.00326891 0.01461025
v -0.05546060 0.00326891 0.01461025
v 0.06883261 0.00149628 0.00843701
v 0.06883261 0.00149628 0.00843701
v 0.04396512 0.00267559 0.01823505
v 0.04396512 0.00267559 0.01823505
v 0.01572569 0.00430269 0.01229877
v 0.01572569 0.00430269 0.01229877
v -0.00379121 0.00310856 0.01676803
v -0.00379121 0.00310856 0.01676803
v -0.00379121 0.00310856 0.01676803
v -0.01199869 0.00062958 0.00477294
v -0.01199869 0.00062958 0.00477294
v -0.01829643 -0.00097881 0.02814705
v -0.01829643 -0.00097881 0.02814705
v -0.04156201 0.00010035 0.00212716
v -0.04156201 0.00010035 0.00212716
v -0.05031709 0.00197141 0.02272109
v -0.05031709 0.00197141 0.02272109
v 0.00068469 0.00478667 0.01683042
v 0.00068469 0.00478667 0.01683042
v 0.04396512 0.00267559 0.01098545
v 0.04396512 0.00267559 0.01098545
v 0.01572569 0.00430269 0.01692173
v 0.01572569 0.00430269 0.01692173
v 0.00068470 0.00478667 0.01239008
v 0.00068470 0.00478667 0.01239008
v 0.00078966 0.00440300 0.01461025
v 0.00078088 0.00441693 0.01607994
v 0.00078088 0.00441693 0.01314056
v 0.00041530 0.00587818 0.01461025
v 0.00041910 0.00593317 0.01607994
v 0.00041910 0.00593317 0.01314056
v 0.00051008 0.00556532 0.01239008
v 0.00051008 0.00556532 0.01239008
v 0.01566420 0.00510035 0.01692173
v 0.01566420 0.00510035 0.01692173
v 0.04399947 0.00348679 0.01098565
v 0.04399947 0.00348679 0.01098565
v 0.00051008 0.00556532 0.01683042
v 0.00051008 0.00556532 0.01683042
v -0.05014159 0.00225240 0.02262656
v -0.05014159 0.00225240 0.02262656
v -0.04145931 0.00041376 0.00223110
v -0.04145931 0.00041376 0.00223110
v -0.01841307 -0.00066057 0.02807143
v -0.01841307 -0.00066057 0.02807143
v -0.01214027 0.00095056 0.00481347
v -0.01214027 0.00095056 0.00481347
v -0.00397064 0.00369767 0.01676758
v -0.00397064 0.00369767 0.01676758
v -0.00397064 0.00369767 0.01676758
v 0.01566420 0.00510035 0.01229877
v 0.01566420 0.00510035 0.01229877
v 0.04399947 0.00348679 0.01823485
v 0.04399947 0.00348679 0.01823485
v 0.06881574 0.00237442 0.00844222
v 0.06881574 0.00237442 0.00844222
v -0.05524329 0.00354476 0.01461025
v -0.05524329 0.00354476 0.01461025
v -0.05419940 0.00324693 0.01099431
v -0.05419940 0.00324693 0.01099431
v 0.08432081 0.00318436 0.01461025
v 0.08432081 0.00318436 0.01461025
v 0.08357858 0.00298831 0.01734153
v 0.08357858 0.00298831 0.01734153
v 0.08084687 0.00251852 0.00886438
v 0.08084687 0.00251852 0.00886438
v 0.06881574 0.00237442 0.02077828
v 0.06881574 0.00237442 0.02077828
v -0.00397064 0.00369767 0.01245292
v -0.00397064 0.00369767 0.01245292
v -0.00397064 0.00369767 0.01245292
v -0.00835689 0.00170273 0.01933733
v -0.00835689 0.00170273 0.01933733
v -0.00835689 0.00170273 0.01933733
v -0.04145931 0.00041376 0.02698940
v -0.04145931 0.00041376 0.02698940
v -0.05014159 0.00225240 0.00659394
v -0.05014159 0.00225240 0.00659394
v -0.05419939 0.00324693 0.01822619
v -0.05419939 0.00324693 0.01822619
v -0.02918769 -0.00126310 0.02896908
v -0.02918769 -0.00126310 0.02896908
v -0.02918769 -0.00126310 0.00025142
v -0.02918769 -0.00126310 0.00025142
v -0.01214027 0.00095056 0.02440703
v -0.01214027 0.00095056 0.02440703
v -0.01841307 -0.00066057 0.00114907
v -0.01841307 -0.00066057 0.00114907
v -0.00835689 0.00170273 0.00988317
v -0.00835689 0.00170273 0.00988317
v -0.00835689 0.00170273 0.00988317
v 0.08357857 0.00298831 0.01187897
v 0.08357857 0.00298831 0.01187897
v 0.08084687 0.00251852 0.02035612
v 0.08084687 0.00251852 0.02035612
vt 0.67196596 0.79930341
vt 0.63347703 0.36159217
vt 0.63347703 0.36159217
vt 0.60982645 0.80276442
vt 0.59677488 0.36355078
vt 0.59677488 0.36355078
vt 0.70046824 0.85897315
vt 0.58876985 0.86602622
vt 0.70092368 0.91255915
vt 0.59494638 0.91943663
vt 0.67540181 0.98432982
vt 0.62910134 0.98741084
vt 0.65332240 0.77451551
vt 0.62540567 0.77624047
vt 0.64168924 0.38623375
vt 0.59136444 0.38913220
vt 0.62866455 0.79892749
vt 0.65265507 0.79767716
vt 0.62177229 0.35797697
vt 0.60828960 0.35862654
vt 0.62456083 0.86464697
vt 0.66503161 0.86196291
vt 0.62884969 0.91717345
vt 0.66705722 0.91458654
vt 0.64426917 0.99242371
vt 0.66083932 0.99127877
vt 0.64448404 0.77439082
vt 0.63411486 0.77509892
vt 0.62592459 0.38640332
vt 0.60717541 0.38747829
vt 0.60140324 0.47251040
vt 0.64153540 0.47018301
vt 0.62882686 0.47092122
vt 0.61413181 0.47176135
vt 0.62800699 0.74461037
vt 0.62800699 0.74461037
vt 0.64087540 0.74389380
vt 0.63405776 0.74432993
vt 0.64691490 0.74346173
vt 0.64691490 0.74346173
vt 0.59575462 0.82794893
vt 0.68896538 0.82243264
vt 0.65997648 0.82266784
vt 0.62479383 0.82470316
vt 0.61167169 0.96425849
vt 0.68991071 0.95911908
vt 0.66510880 0.96245074
vt 0.63662541 0.96439469
vt 0.64081943 0.59994203
vt 0.64081943 0.59994203
vt 0.61729288 0.60131419
vt 0.61729288 0.60131419
vt 0.63324118 0.60036945
vt 0.62487161 0.60085440
vt 0.79873598 0.49003702
vt 0.79826295 0.98532850
vt 0.79826295 0.98532850
vt 0.74155223 0.49114913
vt 0.75691140 0.98601025
vt 0.75691140 0.98601025
vt 0.81744266 0.43431395
vt 0.72122723 0.43529814
vt 0.81609613 0.38729799
vt 0.72150308 0.38797635
vt 0.79042417 0.32397652
vt 0.74653912 0.32378113
vt 0.78388095 0.51388049
vt 0.75732458 0.51428103
vt 0.80555975 0.95495534
vt 0.74879229 0.95588803
vt 0.75921232 0.49313319
vt 0.78108400 0.49263597
vt 0.78517395 0.99062270
vt 0.76994270 0.99090004
vt 0.75184149 0.43466681
vt 0.78711700 0.43443656
vt 0.75176436 0.38755322
vt 0.78603822 0.38739991
vt 0.76070392 0.31819201
vt 0.77654052 0.31840396
vt 0.77551532 0.51478946
vt 0.76570499 0.51488876
vt 0.78764552 0.95628417
vt 0.76666635 0.95665532
vt 0.75272995 0.85794580
vt 0.79856646 0.85727221
vt 0.78402424 0.85755545
vt 0.76726907 0.85779077
vt 0.75983745 0.54443789
vt 0.75983745 0.54443789
vt 0.77505267 0.54430616
vt 0.76708776 0.54439831
vt 0.78229564 0.54413021
vt 0.78229564 0.54413021
vt 0.72767991 0.46887624
vt 0.81188494 0.46758842
vt 0.78582239 0.46988052
vt 0.75403833 0.47040826
vt 0.73242390 0.34637648
vt 0.80456507 0.34614980
vt 0.78179032 0.34452945
vt 0.75543547 0.34454453
vt 0.78700686 0.70961338
vt 0.78700686 0.70961338
vt 0.75991422 0.71000153
vt 0.75991422 0.71000153
vt 0.77829522 0.70975423
vt 0.76862657 0.70988870
vt 0.62589145 0.71091664
vt 0.62589145 0.71091664
vt 0.63887614 0.71016717
vt 0.63208157 0.71056390
vt 0.64505905 0.70979470
vt 0.64505905 0.70979470
vt 0.76013368 0.58283567
vt 0.76013368 0.58283567
vt 0.77568525 0.58265150
vt 0.76755440 0.58276999
vt 0.78310466 0.58250409
vt 0.78310466 0.58250409
vt 0.80432063 0.48993289
vt 0.67772216 0.79939067
vt 0.80046076 0.99167007
vt 0.63499755 0.35638112
vt 0.60416907 0.80339223
vt 0.73595941 0.49135613
vt 0.59451067 0.35841894
vt 0.75497842 0.99232483
vt 0.71136642 0.85351843
vt 0.82569009 0.43782920
vt 0.57717061 0.86196041
vt 0.71295398 0.43901759
vt 0.82569009 0.38539934
vt 0.71136642 0.91453964
vt 0.71175295 0.38626593
vt 0.58480924 0.92273247
vt 0.78988469 0.31871504
vt 0.67476755 0.99019474
vt 0.74694991 0.31838590
vt 0.63048702 0.99312484
vt 0.65311414 0.77627087
vt 0.78308254 0.51152319
vt 0.75810432 0.51185560
vt 0.62585980 0.77804768
vt 0.81750542 0.96925688
vt 0.65100938 0.37321240
vt 0.58047146 0.37733144
vt 0.73737198 0.97057593
vt 0.78501028 0.99976832
vt 0.62138784 0.35040307
vt 0.60805577 0.35060155
vt 0.77019233 0.99980670
vt 0.76174152 0.31098449
vt 0.64585829 0.99980670
vt 0.77565438 0.31153142
vt 0.66010594 0.99882370
vt 0.74622953 0.86737591
vt 0.59505230 0.46402979
vt 0.64688069 0.46101832
vt 0.80528432 0.86653066
vt 0.62418187 0.74001980
vt 0.75475049 0.54897445
vt 0.78750950 0.54850829
vt 0.65013689 0.73848099
vt 0.58805364 0.82578623
vt 0.71985000 0.47071958
vt 0.69626504 0.81939089
vt 0.81965059 0.46917892
vt 0.72546202 0.34332132
vt 0.60463011 0.96833086
vt 0.81133622 0.34302133
vt 0.69745511 0.96226931
vt 0.78974193 0.70759451
vt 0.64346927 0.60218805
vt 0.61492789 0.60385954
vt 0.75711083 0.70806718
vt 0.65004599 0.72886842
vt 0.78728932 0.55907851
vt 0.75527251 0.55954027
vt 0.62315685 0.73043859
vt 0.66379482 0.79848516
vt 0.63765121 0.36824936
vt 0.60171866 0.36091357
vt 0.61853975 0.79053867
vt 0.68510062 0.86032343
vt 0.59095377 0.84467947
vt 0.68108016 0.81009412
vt 0.68618852 0.91339689
vt 0.59020841 0.89214414
vt 0.70224231 0.88494790
vt 0.66902339 0.98821664
vt 0.62179220 0.97927994
vt 0.69666439 0.93781209
vt 0.66185319 0.78805506
vt 0.62802267 0.75946277
vt 0.62802267 0.75946277
vt 0.62923497 0.77576357
vt 0.64257979 0.42039657
vt 0.59332073 0.37072700
vt 0.59830856 0.38844222
vt 0.61776924 0.80098236
vt 0.64061344 0.79775733
vt 0.62840402 0.35954607
vt 0.61502296 0.35762793
vt 0.60431802 0.86552346
vt 0.64482862 0.86344534
vt 0.60969788 0.91844368
vt 0.64795750 0.91586721
vt 0.63584524 0.99045700
vt 0.65259254 0.99268913
vt 0.64943451 0.77446294
vt 0.63928580 0.77460027
vt 0.63477999 0.38634473
vt 0.61655140 0.38676089
vt 0.64210105 0.75848967
vt 0.63460457 0.75902820
vt 0.64829564 0.78701788
vt 0.63174015 0.78796172
vt 0.66282517 0.97990155
vt 0.64097071 0.98140419
vt 0.66649395 0.88758934
vt 0.62616104 0.89031655
vt 0.66281760 0.84020066
vt 0.62416041 0.84262443
vt 0.62368858 0.36701876
vt 0.60727680 0.36791450
vt 0.59449852 0.42318809
vt 0.64055675 0.53252172
vt 0.64055675 0.53252172
vt 0.62747663 0.42111927
vt 0.60964406 0.42214799
vt 0.62148124 0.47134221
vt 0.63587767 0.47050953
vt 0.60707086 0.47217047
vt 0.62739599 0.73326647
vt 0.62739599 0.73326647
vt 0.64014941 0.73257220
vt 0.63343090 0.73296976
vt 0.64869630 0.75815177
vt 0.64869630 0.75815177
vt 0.63079470 0.74449158
vt 0.64413375 0.74366391
vt 0.63746744 0.74412417
vt 0.60208106 0.81459153
vt 0.69572771 0.83824557
vt 0.65659797 0.80895436
vt 0.62628174 0.81058007
vt 0.64238811 0.82337749
vt 0.67662150 0.82248092
vt 0.60813081 0.82649839
vt 0.60232490 0.94397569
vt 0.68169576 0.97532010
vt 0.66659808 0.94016165
vt 0.63242823 0.94248039
vt 0.65088302 0.96377391
vt 0.67915833 0.96061414
vt 0.62249327 0.96439302
vt 0.64280695 0.66312921
vt 0.64280695 0.66312921
vt 0.60968029 0.53431451
vt 0.60968029 0.53431451
vt 0.63069171 0.53310519
vt 0.61955059 0.53374267
vt 0.62077826 0.60109514
vt 0.63733369 0.60013223
vt 0.62905663 0.60061204
vt 0.79123122 0.49124730
vt 0.80245417 0.97682875
vt 0.80245417 0.97682875
vt 0.76253557 0.98875362
vt 0.75041682 0.50164753
vt 0.80435276 0.43436837
vt 0.72363347 0.45407993
vt 0.80621922 0.47946721
vt 0.80305165 0.38736212
vt 0.72025335 0.41231143
vt 0.81786531 0.41147667
vt 0.78435040 0.32077044
vt 0.74043375 0.33183408
vt 0.81149775 0.36502182
vt 0.79030222 0.50090545
vt 0.75984025 0.52992523
vt 0.76103330 0.51454854
vt 0.80381322 0.91471773
vt 0.75253177 0.97766083
vt 0.75253177 0.97766083
vt 0.75667173 0.95619255
vt 0.74905992 0.49212259
vt 0.77014929 0.49334115
vt 0.79262549 0.98823845
vt 0.77754873 0.99154574
vt 0.73446232 0.43498260
vt 0.76950610 0.43450564
vt 0.73465019 0.38778144
vt 0.76892012 0.38743895
vt 0.75274074 0.32051116
vt 0.76865184 0.31751800
vt 0.78017861 0.51429772
vt 0.77061176 0.51499963
vt 0.79765642 0.95549726
vt 0.77715313 0.95671660
vt 0.77481574 0.53002161
vt 0.76691288 0.53007746
vt 0.77791405 0.50270277
vt 0.76278859 0.50299180
vt 0.77886230 0.32875580
vt 0.75833505 0.32865345
vt 0.78691149 0.41150361
vt 0.75144327 0.41167599
vt 0.78682995 0.45403093
vt 0.75265557 0.45440781
vt 0.78666383 0.97955918
vt 0.76824987 0.97990632
vt 0.74927300 0.91557133
vt 0.79228038 0.78636122
vt 0.78658468 0.91531247
vt 0.76648670 0.91563171
vt 0.77564639 0.85768515
vt 0.79209298 0.85740364
vt 0.75920188 0.85787845
vt 0.75977379 0.55671638
vt 0.75977379 0.55671638
vt 0.77530217 0.55652177
vt 0.76718491 0.55663633
vt 0.78186852 0.52963841
vt 0.76319784 0.54441440
vt 0.77893901 0.54421234
vt 0.77107090 0.54436743
vt 0.73370278 0.48076069
vt 0.81552166 0.45292306
vt 0.78386027 0.48228854
vt 0.75621128 0.48286909
vt 0.76995808 0.47051823
vt 0.80078435 0.46866858
vt 0.73892868 0.46964651
vt 0.72571546 0.36549479
vt 0.79649180 0.33186048
vt 0.78429765 0.36453563
vt 0.75312221 0.36463970
vt 0.76863474 0.34419292
vt 0.79470968 0.34538466
vt 0.74239904 0.34549707
vt 0.78417158 0.63681567
vt 0.78417158 0.63681567
vt 0.75688970 0.78686553
vt 0.78098160 0.78652680
vt 0.76818883 0.78669786
vt 0.76391429 0.70996588
vt 0.78300774 0.70969558
vt 0.77346087 0.70981598
vt 0.80230922 0.48974353
vt 0.80230922 0.48974353
vt 0.79928941 0.98760885
vt 0.79928941 0.98760885
vt 0.73798150 0.49097836
vt 0.73798150 0.49097836
vt 0.75596762 0.98828238
vt 0.75596762 0.98828238
vt 0.82334167 0.43459445
vt 0.82334167 0.43459445
vt 0.71526545 0.43574858
vt 0.71526545 0.43574858
vt 0.82209188 0.38705742
vt 0.82209188 0.38705742
vt 0.71544999 0.38785893
vt 0.71544999 0.38785893
vt 0.79057240 0.32210481
vt 0.79057240 0.32210481
vt 0.74635422 0.32186466
vt 0.74635422 0.32186466
vt 0.78571469 0.51364362
vt 0.78571469 0.51364362
vt 0.75549036 0.51411557
vt 0.75549036 0.51411557
vt 0.81050479 0.95628899
vt 0.81050479 0.95628899
vt 0.74391443 0.95736700
vt 0.74391443 0.95736700
vt 0.78474969 0.99591762
vt 0.78474969 0.99591762
vt 0.77044487 0.99611223
vt 0.77044487 0.99611223
vt 0.76162052 0.31348646
vt 0.76162052 0.31348646
vt 0.77566862 0.31378740
vt 0.77566862 0.31378740
vt 0.74883920 0.85877061
vt 0.74883920 0.85877061
vt 0.80247605 0.85797966
vt 0.80247605 0.85797966
vt 0.75730026 0.54485440
vt 0.75730026 0.54485440
vt 0.78484213 0.54446793
vt 0.78484213 0.54446793
vt 0.72254020 0.46883667
vt 0.72254020 0.46883667
vt 0.81695968 0.46740520
vt 0.81695968 0.46740520
vt 0.72782505 0.34632301
vt 0.72782505 0.34632301
vt 0.80909532 0.34604263
vt 0.80909532 0.34604263
vt 0.78963888 0.70934129
vt 0.78963888 0.70934129
vt 0.75727427 0.70980746
vt 0.75727427 0.70980746
vt 0.62268865 0.66430569
vt 0.62268865 0.66430569
vt 0.63630223 0.66349185
vt 0.62919569 0.66390657
vt 0.64617246 0.73215955
vt 0.64617246 0.73215955
vt 0.76063639 0.63715565
vt 0.76063639 0.63715565
vt 0.77657378 0.63696265
vt 0.76823527 0.63708329
vt 0.78271168 0.55638909
vt 0.78271168 0.55638909
vt 0.78564364 0.58039868
vt 0.78564364 0.58039868
vt 0.75753450 0.58080369
vt 0.75753450 0.58080369
vt 0.77161974 0.58270431
vt 0.77965796 0.58260202
vt 0.76358193 0.58283508
vt 0.63547897 0.71035933
vt 0.64218539 0.70998460
vt 0.62877089 0.71076900
vt 0.67574877 0.79938948
vt 0.67574877 0.79938948
vt 0.63422942 0.35969251
vt 0.63422942 0.35969251
vt 0.60611326 0.80329061
vt 0.60611326 0.80329061
vt 0.59577399 0.36169541
vt 0.59577399 0.36169541
vt 0.70746702 0.85790944
vt 0.70746702 0.85790944
vt 0.58162904 0.86580735
vt 0.58162904 0.86580735
vt 0.70766407 0.91246092
vt 0.70766407 0.91246092
vt 0.58823264 0.92017168
vt 0.58823264 0.92017168
vt 0.67556846 0.98638511
vt 0.67556846 0.98638511
vt 0.62919736 0.98946017
vt 0.62919736 0.98946017
vt 0.65522349 0.77447295
vt 0.65522349 0.77447295
vt 0.62352651 0.77641302
vt 0.62352651 0.77641302
vt 0.64585149 0.38477099
vt 0.64585149 0.38477099
vt 0.58701491 0.38816315
vt 0.58701491 0.38816315
vt 0.62117583 0.35360748
vt 0.62117583 0.35360748
vt 0.60848272 0.35409379
vt 0.60848272 0.35409379
vt 0.64559138 0.99732506
vt 0.64559138 0.99732506
vt 0.66010040 0.99632770
vt 0.66010040 0.99632770
vt 0.59792024 0.47199500
vt 0.59792024 0.47199500
vt 0.64493114 0.46926218
vt 0.64493114 0.46926218
vt 0.62592721 0.74429965
vt 0.62592721 0.74429965
vt 0.64893889 0.74291432
vt 0.64893889 0.74291432
vt 0.59020573 0.82815599
vt 0.59020573 0.82815599
vt 0.69444227 0.82197237
vt 0.69444227 0.82197237
vt 0.60675710 0.96473515
vt 0.60675710 0.96473515
vt 0.69486392 0.95897818
vt 0.69486392 0.95897818
vt 0.64314485 0.60003436
vt 0.64314485 0.60003436
vt 0.61499381 0.60167837
vt 0.61499381 0.60167837
vt 0.64731413 0.71120870
vt 0.64731413 0.71120870
vt 0.62381393 0.71258450
vt 0.62381393 0.71258450
vt 0.62366951 0.73522913
vt 0.75501156 0.55425727
vt 0.64675766 0.66552818
vt 0.78851569 0.63333642
vt 0.60499018 0.53394461
vt 0.75167030 0.78772151
vt 0.78739941 0.55379331
vt 0.65009147 0.73367465
vt 0.80061054 0.33086812
vt 0.68611139 0.97623199
vt 0.71860754 0.36479354
vt 0.59471971 0.94553167
vt 0.70381582 0.83645463
vt 0.82267040 0.45350403
vt 0.59611142 0.81458920
vt 0.72790480 0.48103780
vt 0.78529608 0.53001571
vt 0.78529608 0.53001571
vt 0.65162563 0.75737590
vt 0.65162563 0.75737590
vt 0.75619173 0.63380367
vt 0.61904252 0.66714907
vt 0.64517504 0.53160310
vt 0.79751325 0.78706253
vt 0.58776194 0.42068058
vt 0.74180090 0.91897595
vt 0.76869798 0.31125784
vt 0.65298218 0.99931520
vt 0.75434577 0.31468517
vt 0.63817269 0.99646580
vt 0.61472189 0.35050225
vt 0.77760136 0.99978751
vt 0.79273564 0.99571919
vt 0.62819272 0.35339206
vt 0.58749110 0.36787510
vt 0.74617529 0.98145038
vt 0.74617529 0.98145038
vt 0.64894509 0.41711527
vt 0.81139493 0.91789377
vt 0.62502092 0.75903368
vt 0.62502092 0.75903368
vt 0.75642747 0.53041494
vt 0.75642747 0.53041494
vt 0.79370165 0.50072801
vt 0.79370165 0.50072801
vt 0.66541821 0.78783071
vt 0.66541821 0.78783071
vt 0.81851327 0.36421031
vt 0.70441091 0.93840444
vt 0.73620600 0.33085352
vt 0.61755872 0.98072785
vt 0.78276962 0.31512314
vt 0.66743678 0.99450922
vt 0.82569015 0.41161418
vt 0.71136647 0.88402903
vt 0.71235353 0.41264170
vt 0.58099002 0.89234644
vt 0.68699366 0.80939072
vt 0.81198567 0.47955585
vt 0.58261222 0.84387332
vt 0.71640205 0.45486850
vt 0.61501449 0.79071993
vt 0.61501449 0.79071993
vt 0.74703193 0.50160581
vt 0.74703193 0.50160581
vt 0.60128331 0.35451019
vt 0.76258546 0.99606574
vt 0.80898321 0.98046350
vt 0.80898321 0.98046350
vt 0.64300352 0.36479670
vt 0.59944606 0.36948144
vt 0.60526323 0.84383798
vt 0.60586524 0.89139915
vt 0.63010639 0.98040992
vt 0.62417221 0.78937000
vt 0.60117418 0.42274916
vt 0.63593000 0.42073673
vt 0.61856318 0.42158896
vt 0.65604979 0.78754640
vt 0.63998258 0.78711855
vt 0.67353302 0.97749400
vt 0.65192652 0.98127925
vt 0.68668830 0.88610244
vt 0.64634645 0.88902855
vt 0.68157196 0.83911347
vt 0.64351541 0.84138405
vt 0.63153684 0.36770254
vt 0.61547905 0.36703867
vt 0.62512207 0.53343213
vt 0.63609695 0.53277338
vt 0.61414111 0.53404069
vt 0.63100880 0.75929844
vt 0.64570653 0.75831670
vt 0.63835096 0.75873768
vt 0.64141148 0.80925393
vt 0.67072302 0.80949146
vt 0.61230528 0.81274009
vt 0.64951771 0.94141930
vt 0.68360370 0.93880963
vt 0.61539948 0.94333237
vt 0.62571263 0.66412818
vt 0.63978529 0.66330594
vt 0.63274884 0.66369152
vt 0.75943923 0.97867477
vt 0.73610216 0.45424658
vt 0.73378760 0.41199952
vt 0.74818379 0.33024627
vt 0.75573629 0.50228739
vt 0.75688046 0.91557717
vt 0.79619676 0.91495782
vt 0.77653468 0.91555393
vt 0.78497314 0.50173789
vt 0.77035004 0.50316644
vt 0.78887695 0.33033693
vt 0.76862431 0.32812107
vt 0.80444992 0.41149604
vt 0.76919931 0.41152978
vt 0.80321860 0.45344281
vt 0.76977354 0.45436186
vt 0.79550689 0.97804016
vt 0.77745080 0.98025411
vt 0.77458519 0.78660542
vt 0.78718346 0.78645128
vt 0.76198721 0.78680140
vt 0.76307231 0.52997625
vt 0.77864575 0.52981055
vt 0.77086639 0.53011084
vt 0.77004987 0.48306400
vt 0.79672980 0.48079026
vt 0.74326646 0.48181081
vt 0.76872909 0.36444849
vt 0.79970580 0.36480486
vt 0.73761201 0.36509514
vt 0.76416135 0.63714814
vt 0.78064787 0.63690978
vt 0.77240437 0.63701773
vt 0.80633605 0.97760755
vt 0.80633605 0.97760755
vt 0.80633605 0.97760755
vt 0.80633605 0.97760755
vt 0.76324856 0.99334532
vt 0.76324856 0.99334532
vt 0.74780536 0.50154614
vt 0.74780536 0.50154614
vt 0.74780536 0.50154614
vt 0.71803933 0.45419437
vt 0.71803933 0.45419437
vt 0.81054711 0.47913468
vt 0.81054711 0.47913468
vt 0.71416849 0.41246396
vt 0.71416849 0.41246396
vt 0.82389313 0.41147500
vt 0.82389313 0.41147500
vt 0.78280807 0.31663907
vt 0.78280807 0.31663907
vt 0.73714358 0.33186400
vt 0.73714358 0.33186400
vt 0.81683272 0.36489165
vt 0.81683272 0.36489165
vt 0.79292285 0.50070685
vt 0.79292285 0.50070685
vt 0.79292285 0.50070685
vt 0.75768387 0.53005511
vt 0.75768387 0.53005511
vt 0.75768387 0.53005511
vt 0.80833590 0.91526097
vt 0.80833590 0.91526097
vt 0.74871135 0.97853529
vt 0.74871135 0.97853529
vt 0.74871135 0.97853529
vt 0.74871135 0.97853529
vt 0.79200733 0.99292052
vt 0.79200733 0.99292052
vt 0.77758569 0.99688143
vt 0.77758569 0.99688143
vt 0.75429988 0.31628066
vt 0.75429988 0.31628066
vt 0.76867509 0.31281096
vt 0.76867509 0.31281096
vt 0.74477601 0.91625160
vt 0.74477601 0.91625160
vt 0.79551327 0.78640234
vt 0.79551327 0.78640234
vt 0.75806171 0.63654387
vt 0.75806171 0.63654387
vt 0.78402543 0.52969062
vt 0.78402543 0.52969062
vt 0.78402543 0.52969062
vt 0.72934461 0.48055381
vt 0.72934461 0.48055381
vt 0.82104129 0.45287639
vt 0.82104129 0.45287639
vt 0.72032493 0.36545026
vt 0.72032493 0.36545026
vt 0.79971313 0.33186978
vt 0.79971313 0.33186978
vt 0.78530037 0.55587918
vt 0.78530037 0.55587918
vt 0.75365752 0.78700411
vt 0.75365752 0.78700411
vt 0.78672695 0.63612974
vt 0.78672695 0.63612974
vt 0.75717086 0.55628139
vt 0.75717086 0.55628139
vt 0.77124351 0.55657613
vt 0.77926773 0.55646759
vt 0.76321918 0.55669558
vt 0.63679099 0.73277819
vt 0.64338046 0.73236036
vt 0.63019532 0.73313880
vt 0.62528849 0.73364842
vt 0.62528849 0.73364842
vt 0.64503986 0.66341412
vt 0.64503986 0.66341412
vt 0.60681820 0.53441632
vt 0.60681820 0.53441632
vt 0.64830613 0.73229218
vt 0.64830613 0.73229218
vt 0.68514991 0.97512978
vt 0.68514991 0.97512978
vt 0.59644800 0.94455510
vt 0.59644800 0.94455510
vt 0.70202756 0.83754414
vt 0.70202756 0.83754414
vt 0.59748960 0.81508768
vt 0.59748960 0.81508768
vt 0.65062284 0.75787854
vt 0.65062284 0.75787854
vt 0.65062284 0.75787854
vt 0.62050271 0.66484916
vt 0.62050271 0.66484916
vt 0.64341062 0.53228641
vt 0.64341062 0.53228641
vt 0.59052533 0.42287558
vt 0.59052533 0.42287558
vt 0.65288633 0.99770594
vt 0.65288633 0.99770594
vt 0.63791960 0.99481690
vt 0.63791960 0.99481690
vt 0.61482191 0.35309267
vt 0.61482191 0.35309267
vt 0.62763196 0.35575736
vt 0.62763196 0.35575736
vt 0.58988607 0.37020123
vt 0.58988607 0.37020123
vt 0.64646977 0.41962248
vt 0.64646977 0.41962248
vt 0.62607723 0.75940698
vt 0.62607723 0.75940698
vt 0.62607723 0.75940698
vt 0.66462719 0.78802007
vt 0.66462719 0.78802007
vt 0.66462719 0.78802007
vt 0.70257157 0.93765593
vt 0.70257157 0.93765593
vt 0.61836541 0.97951865
vt 0.61836541 0.97951865
vt 0.66748393 0.99282593
vt 0.66748393 0.99282593
vt 0.70923305 0.88438755
vt 0.70923305 0.88438755
vt 0.58316386 0.89243305
vt 0.58316386 0.89243305
vt 0.68568873 0.81003153
vt 0.68568873 0.81003153
vt 0.58454257 0.84473860
vt 0.58454257 0.84473860
vt 0.61581314 0.79082102
vt 0.61581314 0.79082102
vt 0.61581314 0.79082102
vt 0.60209674 0.35694104
vt 0.60209674 0.35694104
vt 0.64093894 0.36735594
vt 0.64093894 0.36735594
f 30/30 226/226 559/559
f 30/30 559/559 200/200
f 226/226 20/20 183/183
f 226/226 183/183 559/559
f 559/559 183/183 5/5
f 559/559 5/5 199/199
f 200/200 559/559 199/199
f 200/200 199/199 16/16
f 44/44 250/250 560/560
f 44/44 560/560 224/224
f 250/250 41/41 186/186
f 250/250 186/186 560/560
f 560/560 186/186 8/8
f 560/560 8/8 205/205
f 224/224 560/560 205/205
f 224/224 205/205 21/21
f 21/21 205/205 561/561
f 21/21 561/561 222/222
f 205/205 8/8 189/189
f 205/205 189/189 561/561
f 561/561 189/189 10/10
f 561/561 10/10 207/207
f 222/222 561/561 207/207
f 222/222 207/207 23/23
f 48/48 257/257 562/562
f 48/48 562/562 220/220
f 257/257 45/45 192/192
f 257/257 192/192 562/562
f 562/562 192/192 12/12
f 562/562 12/12 209/209
f 220/220 562/562 209/209
f 220/220 209/209 25/25
f 17/17 218/218 563/563
f 17/17 563/563 201/201
f 218/218 28/28 197/197
f 218/218 197/197 563/563
f 563/563 197/197 14/14
f 563/563 14/14 184/184
f 201/201 563/563 184/184
f 201/201 184/184 4/4
f 34/34 231/231 564/564
f 34/34 564/564 234/234
f 231/231 30/30 200/200
f 231/231 200/200 564/564
f 564/564 200/200 16/16
f 564/564 16/16 227/227
f 234/234 564/564 227/227
f 234/234 227/227 31/31
f 32/32 198/198 565/565
f 32/32 565/565 233/233
f 198/198 15/15 213/213
f 198/198 213/213 565/565
f 565/565 213/213 29/29
f 565/565 29/29 230/230
f 233/233 565/565 230/230
f 233/233 230/230 33/33
f 33/33 230/230 566/566
f 33/33 566/566 232/232
f 230/230 29/29 214/214
f 230/230 214/214 566/566
f 566/566 214/214 30/30
f 566/566 30/30 231/231
f 232/232 566/566 231/231
f 232/232 231/231 34/34
f 1/1 194/194 567/567
f 1/1 567/567 181/181
f 194/194 13/13 211/211
f 194/194 211/211 567/567
f 567/567 211/211 27/27
f 567/567 27/27 217/217
f 181/181 567/567 217/217
f 181/181 217/217 18/18
f 18/18 217/217 568/568
f 18/18 568/568 202/202
f 217/217 27/27 212/212
f 217/217 212/212 568/568
f 568/568 212/212 28/28
f 568/568 28/28 218/218
f 202/202 568/568 218/218
f 202/202 218/218 17/17
f 46/46 256/256 569/569
f 46/46 569/569 252/252
f 256/256 47/47 219/219
f 256/256 219/219 569/569
f 569/569 219/219 26/26
f 569/569 26/26 191/191
f 252/252 569/569 191/191
f 252/252 191/191 11/11
f 47/47 255/255 570/570
f 47/47 570/570 219/219
f 255/255 48/48 220/220
f 255/255 220/220 570/570
f 570/570 220/220 25/25
f 570/570 25/25 210/210
f 219/219 570/570 210/210
f 219/219 210/210 26/26
f 7/7 185/185 571/571
f 7/7 571/571 190/190
f 185/185 22/22 221/221
f 185/185 221/221 571/571
f 571/571 221/221 24/24
f 571/571 24/24 188/188
f 190/190 571/571 188/188
f 190/190 188/188 9/9
f 22/22 206/206 572/572
f 22/22 572/572 221/221
f 206/206 21/21 222/222
f 206/206 222/222 572/572
f 572/572 222/222 23/23
f 572/572 23/23 208/208
f 221/221 572/572 208/208
f 221/221 208/208 24/24
f 42/42 249/249 573/573
f 42/42 573/573 245/245
f 249/249 43/43 223/223
f 249/249 223/223 573/573
f 573/573 223/223 22/22
f 573/573 22/22 185/185
f 245/245 573/573 185/185
f 245/245 185/185 7/7
f 43/43 248/248 574/574
f 43/43 574/574 223/223
f 248/248 44/44 224/224
f 248/248 224/224 574/574
f 574/574 224/224 21/21
f 574/574 21/21 206/206
f 223/223 574/574 206/206
f 223/223 206/206 22/22
f 15/15 182/182 575/575
f 15/15 575/575 213/213
f 182/182 2/2 203/203
f 182/182 203/203 575/575
f 575/575 203/203 19/19
f 575/575 19/19 225/225
f 213/213 575/575 225/225
f 213/213 225/225 29/29
f 29/29 225/225 576/576
f 29/29 576/576 214/214
f 225/225 19/19 204/204
f 225/225 204/204 576/576
f 576/576 204/204 20/20
f 576/576 20/20 226/226
f 214/214 576/576 226/226
f 214/214 226/226 30/30
f 53/53 262/262 577/577
f 53/53 577/577 266/266
f 262/262 33/33 232/232
f 262/262 232/232 577/577
f 577/577 232/232 34/34
f 577/577 34/34 263/263
f 266/266 577/577 263/263
f 266/266 263/263 54/54
f 50/50 229/229 578/578
f 50/50 578/578 265/265
f 229/229 32/32 233/233
f 229/229 233/233 578/578
f 578/578 233/233 33/33
f 578/578 33/33 262/262
f 265/265 578/578 262/262
f 265/265 262/262 53/53
f 54/54 263/263 579/579
f 54/54 579/579 264/264
f 263/263 34/34 234/234
f 263/263 234/234 579/579
f 579/579 234/234 31/31
f 579/579 31/31 261/261
f 264/264 579/579 261/261
f 264/264 261/261 52/52
f 28/28 216/216 580/580
f 28/28 580/580 197/197
f 216/216 38/38 241/241
f 216/216 241/241 580/580
f 580/580 241/241 35/35
f 580/580 35/35 195/195
f 197/197 580/580 195/195
f 197/197 195/195 14/14
f 13/13 239/239 581/581
f 13/13 581/581 211/211
f 239/239 39/39 242/242
f 239/239 242/242 581/581
f 581/581 242/242 37/37
f 581/581 37/37 215/215
f 211/211 581/581 215/215
f 211/211 215/215 27/27
f 27/27 215/215 582/582
f 27/27 582/582 212/212
f 215/215 37/37 243/243
f 215/215 243/243 582/582
f 582/582 243/243 38/38
f 582/582 38/38 216/216
f 212/212 582/582 216/216
f 212/212 216/216 28/28
f 18/18 202/202 583/583
f 18/18 583/583 246/246
f 202/202 17/17 247/247
f 202/202 247/247 583/583
f 583/583 247/247 44/44
f 583/583 44/44 248/248
f 246/246 583/583 248/248
f 246/246 248/248 43/43
f 1/1 181/181 584/584
f 1/1 584/584 187/187
f 181/181 18/18 246/246
f 181/181 246/246 584/584
f 584/584 246/246 43/43
f 584/584 43/43 249/249
f 187/187 584/584 249/249
f 187/187 249/249 42/42
f 17/17 201/201 585/585
f 17/17 585/585 247/247
f 201/201 4/4 244/244
f 201/201 244/244 585/585
f 585/585 244/244 41/41
f 585/585 41/41 250/250
f 247/247 585/585 250/250
f 247/247 250/250 44/44
f 24/24 208/208 586/586
f 24/24 586/586 253/253
f 208/208 23/23 254/254
f 208/208 254/254 586/586
f 586/586 254/254 48/48
f 586/586 48/48 255/255
f 253/253 586/586 255/255
f 253/253 255/255 47/47
f 9/9 188/188 587/587
f 9/9 587/587 193/193
f 188/188 24/24 253/253
f 188/188 253/253 587/587
f 587/587 253/253 47/47
f 587/587 47/47 256/256
f 193/193 587/587 256/256
f 193/193 256/256 46/46
f 23/23 207/207 588/588
f 23/23 588/588 254/254
f 207/207 10/10 251/251
f 207/207 251/251 588/588
f 588/588 251/251 45/45
f 588/588 45/45 257/257
f 254/254 588/588 257/257
f 254/254 257/257 48/48
f 112/112 410/410 589/589
f 112/112 589/589 428/428
f 410/410 54/54 264/264
f 410/410 264/264 589/589
f 589/589 264/264 52/52
f 589/589 52/52 408/408
f 428/428 589/589 408/408
f 428/428 408/408 110/110
f 114/114 259/259 590/590
f 114/114 590/590 427/427
f 259/259 50/50 265/265
f 259/259 265/265 590/590
f 590/590 265/265 53/53
f 590/590 53/53 409/409
f 427/427 590/590 409/409
f 427/427 409/409 111/111
f 111/111 409/409 591/591
f 111/111 591/591 426/426
f 409/409 53/53 266/266
f 409/409 266/266 591/591
f 591/591 266/266 54/54
f 591/591 54/54 410/410
f 426/426 591/591 410/410
f 426/426 410/410 112/112
f 84/84 287/287 592/592
f 84/84 592/592 313/313
f 287/287 70/70 285/285
f 287/287 285/285 592/592
f 592/592 285/285 59/59
f 592/592 59/59 270/270
f 313/313 592/592 270/270
f 313/313 270/270 74/74
f 98/98 311/311 593/593
f 98/98 593/593 335/335
f 311/311 75/75 292/292
f 311/311 292/292 593/593
f 593/593 292/292 62/62
f 593/593 62/62 273/273
f 335/335 593/593 273/273
f 335/335 273/273 95/95
f 75/75 309/309 594/594
f 75/75 594/594 292/292
f 309/309 77/77 294/294
f 309/309 294/294 594/594
f 594/594 294/294 64/64
f 594/594 64/64 276/276
f 292/292 594/594 276/276
f 292/292 276/276 62/62
f 102/102 307/307 595/595
f 102/102 595/595 342/342
f 307/307 79/79 296/296
f 307/307 296/296 595/595
f 595/595 296/296 66/66
f 595/595 66/66 279/279
f 342/342 595/595 279/279
f 342/342 279/279 99/99
f 71/71 288/288 596/596
f 71/71 596/596 305/305
f 288/288 58/58 271/271
f 288/288 271/271 596/596
f 596/596 271/271 68/68
f 596/596 68/68 283/283
f 305/305 596/596 283/283
f 305/305 283/283 82/82
f 88/88 320/320 597/597
f 88/88 597/597 317/317
f 320/320 85/85 314/314
f 320/320 314/314 597/597
f 597/597 314/314 70/70
f 597/597 70/70 287/287
f 317/317 597/597 287/287
f 317/317 287/287 84/84
f 86/86 319/319 598/598
f 86/86 598/598 284/284
f 319/319 87/87 316/316
f 319/319 316/316 598/598
f 598/598 316/316 83/83
f 598/598 83/83 300/300
f 284/284 598/598 300/300
f 284/284 300/300 69/69
f 87/87 318/318 599/599
f 87/87 599/599 316/316
f 318/318 88/88 317/317
f 318/318 317/317 599/599
f 599/599 317/317 84/84
f 599/599 84/84 301/301
f 316/316 599/599 301/301
f 316/316 301/301 83/83
f 55/55 267/267 600/600
f 55/55 600/600 281/281
f 267/267 72/72 304/304
f 267/267 304/304 600/600
f 600/600 304/304 81/81
f 600/600 81/81 298/298
f 281/281 600/600 298/298
f 281/281 298/298 67/67
f 72/72 289/289 601/601
f 72/72 601/601 304/304
f 289/289 71/71 305/305
f 289/289 305/305 601/601
f 601/601 305/305 82/82
f 601/601 82/82 299/299
f 304/304 601/601 299/299
f 304/304 299/299 81/81
f 100/100 337/337 602/602
f 100/100 602/602 341/341
f 337/337 65/65 278/278
f 337/337 278/278 602/602
f 602/602 278/278 80/80
f 602/602 80/80 306/306
f 341/341 602/602 306/306
f 341/341 306/306 101/101
f 101/101 306/306 603/603
f 101/101 603/603 340/340
f 306/306 80/80 297/297
f 306/306 297/297 603/603
f 603/603 297/297 79/79
f 603/603 79/79 307/307
f 340/340 603/603 307/307
f 340/340 307/307 102/102
f 61/61 277/277 604/604
f 61/61 604/604 272/272
f 277/277 63/63 275/275
f 277/277 275/275 604/604
f 604/604 275/275 78/78
f 604/604 78/78 308/308
f 272/272 604/604 308/308
f 272/272 308/308 76/76
f 76/76 308/308 605/605
f 76/76 605/605 293/293
f 308/308 78/78 295/295
f 308/308 295/295 605/605
f 605/605 295/295 77/77
f 605/605 77/77 309/309
f 293/293 605/605 309/309
f 293/293 309/309 75/75
f 96/96 330/330 606/606
f 96/96 606/606 334/334
f 330/330 61/61 272/272
f 330/330 272/272 606/606
f 606/606 272/272 76/76
f 606/606 76/76 310/310
f 334/334 606/606 310/310
f 334/334 310/310 97/97
f 97/97 310/310 607/607
f 97/97 607/607 333/333
f 310/310 76/76 293/293
f 310/310 293/293 607/607
f 607/607 293/293 75/75
f 607/607 75/75 311/311
f 333/333 607/607 311/311
f 333/333 311/311 98/98
f 69/69 300/300 608/608
f 69/69 608/608 268/268
f 300/300 83/83 312/312
f 300/300 312/312 608/608
f 608/608 312/312 73/73
f 608/608 73/73 290/290
f 268/268 608/608 290/290
f 268/268 290/290 56/56
f 83/83 301/301 609/609
f 83/83 609/609 312/312
f 301/301 84/84 313/313
f 301/301 313/313 609/609
f 609/609 313/313 74/74
f 609/609 74/74 291/291
f 312/312 609/609 291/291
f 312/312 291/291 73/73
f 107/107 350/350 610/610
f 107/107 610/610 346/346
f 350/350 108/108 347/347
f 350/350 347/347 610/610
f 610/610 347/347 88/88
f 610/610 88/88 318/318
f 346/346 610/610 318/318
f 346/346 318/318 87/87
f 104/104 349/349 611/611
f 104/104 611/611 315/315
f 349/349 107/107 346/346
f 349/349 346/346 611/611
f 611/611 346/346 87/87
f 611/611 87/87 319/319
f 315/315 611/611 319/319
f 315/315 319/319 86/86
f 108/108 348/348 612/612
f 108/108 612/612 347/347
f 348/348 106/106 345/345
f 348/348 345/345 612/612
f 612/612 345/345 85/85
f 612/612 85/85 320/320
f 347/347 612/612 320/320
f 347/347 320/320 88/88
f 82/82 283/283 613/613
f 82/82 613/613 303/303
f 283/283 68/68 282/282
f 283/283 282/282 613/613
f 613/613 282/282 90/90
f 613/613 90/90 326/326
f 303/303 613/613 326/326
f 303/303 326/326 92/92
f 67/67 298/298 614/614
f 67/67 614/614 325/325
f 298/298 81/81 302/302
f 298/298 302/302 614/614
f 614/614 302/302 91/91
f 614/614 91/91 327/327
f 325/325 614/614 327/327
f 325/325 327/327 94/94
f 81/81 299/299 615/615
f 81/81 615/615 302/302
f 299/299 82/82 303/303
f 299/299 303/303 615/615
f 615/615 303/303 92/92
f 615/615 92/92 328/328
f 302/302 615/615 328/328
f 302/302 328/328 91/91
f 72/72 331/331 616/616
f 72/72 616/616 289/289
f 331/331 97/97 333/333
f 331/331 333/333 616/616
f 616/616 333/333 98/98
f 616/616 98/98 332/332
f 289/289 616/616 332/332
f 289/289 332/332 71/71
f 55/55 274/274 617/617
f 55/55 617/617 267/267
f 274/274 96/96 334/334
f 274/274 334/334 617/617
f 617/617 334/334 97/97
f 617/617 97/97 331/331
f 267/267 617/617 331/331
f 267/267 331/331 72/72
f 71/71 332/332 618/618
f 71/71 618/618 288/288
f 332/332 98/98 335/335
f 332/332 335/335 618/618
f 618/618 335/335 95/95
f 618/618 95/95 329/329
f 288/288 618/618 329/329
f 288/288 329/329 58/58
f 78/78 338/338 619/619
f 78/78 619/619 295/295
f 338/338 101/101 340/340
f 338/338 340/340 619/619
f 619/619 340/340 102/102
f 619/619 102/102 339/339
f 295/295 619/619 339/339
f 295/295 339/339 77/77
f 63/63 280/280 620/620
f 63/63 620/620 275/275
f 280/280 100/100 341/341
f 280/280 341/341 620/620
f 620/620 341/341 101/101
f 620/620 101/101 338/338
f 275/275 620/620 338/338
f 275/275 338/338 78/78
f 77/77 339/339 621/621
f 77/77 621/621 294/294
f 339/339 102/102 342/342
f 339/339 342/342 621/621
f 621/621 342/342 99/99
f 621/621 99/99 336/336
f 294/294 621/621 336/336
f 294/294 336/336 64/64
f 118/118 425/425 622/622
f 118/118 622/622 416/416
f 425/425 115/115 413/413
f 425/425 413/413 622/622
f 622/622 413/413 106/106
f 622/622 106/106 348/348
f 416/416 622/622 348/348
f 416/416 348/348 108/108
f 119/119 424/424 623/623
f 119/119 623/623 343/343
f 424/424 117/117 415/415
f 424/424 415/415 623/623
f 623/623 415/415 107/107
f 623/623 107/107 349/349
f 343/343 623/623 349/349
f 343/343 349/349 104/104
f 117/117 423/423 624/624
f 117/117 624/624 415/415
f 423/423 118/118 416/416
f 423/423 416/416 624/624
f 624/624 416/416 108/108
f 624/624 108/108 350/350
f 415/415 624/624 350/350
f 415/415 350/350 107/107
f 123/123 557/557 628/628
f 123/123 628/628 354/354
f 556/556 145/145 376/376
f 556/556 376/376 626/626
f 625/625 375/375 69/69
f 625/625 69/69 268/268
f 353/353 627/627 269/269
f 353/353 269/269 57/57
f 128/128 555/555 630/630
f 128/128 630/630 358/358
f 555/555 152/152 382/382
f 555/555 382/382 630/630
f 629/629 381/381 74/74
f 629/629 74/74 270/270
f 357/357 629/629 270/270
f 357/357 270/270 60/60
f 126/126 553/553 632/632
f 126/126 632/632 356/356
f 552/552 143/143 373/373
f 552/552 373/373 633/633
f 631/631 374/374 68/68
f 631/631 68/68 271/271
f 355/355 631/631 271/271
f 355/355 271/271 58/58
f 132/132 549/549 635/635
f 132/132 635/635 362/362
f 549/549 166/166 396/396
f 549/549 396/396 635/635
f 634/634 395/395 95/95
f 634/634 95/95 273/273
f 361/361 634/634 273/273
f 361/361 273/273 62/62
f 121/121 547/547 637/637
f 121/121 637/637 352/352
f 547/547 168/168 398/398
f 547/547 398/398 637/637
f 636/636 397/397 96/96
f 636/636 96/96 274/274
f 351/351 636/636 274/274
f 351/351 274/274 55/55
f 135/135 544/544 639/639
f 135/135 639/639 365/365
f 544/544 132/132 362/362
f 544/544 362/362 639/639
f 638/638 361/361 62/62
f 638/638 62/62 276/276
f 366/366 638/638 276/276
f 366/366 276/276 64/64
f 130/130 542/542 641/641
f 130/130 641/641 360/360
f 542/542 133/133 363/363
f 542/542 363/363 641/641
f 640/640 364/364 63/63
f 640/640 63/63 277/277
f 359/359 640/640 277/277
f 359/359 277/277 61/61
f 137/137 540/540 642/642
f 137/137 642/642 367/367
f 540/540 155/155 385/385
f 540/540 385/385 642/642
f 643/643 386/386 80/80
f 643/643 80/80 278/278
f 368/368 643/643 278/278
f 368/368 278/278 65/65
f 139/139 538/538 644/644
f 139/139 644/644 369/369
f 538/538 169/169 399/399
f 538/538 399/399 644/644
f 645/645 400/400 99/99
f 645/645 99/99 279/279
f 370/370 645/645 279/279
f 370/370 279/279 66/66
f 133/133 536/536 646/646
f 133/133 646/646 363/363
f 536/536 171/171 401/401
f 536/536 401/401 646/646
f 647/647 402/402 100/100
f 647/647 100/100 280/280
f 364/364 647/647 280/280
f 364/364 280/280 63/63
f 142/142 533/533 649/649
f 142/142 649/649 371/371
f 532/532 121/121 352/352
f 532/532 352/352 650/650
f 648/648 351/351 55/55
f 648/648 55/55 281/281
f 372/372 648/648 281/281
f 372/372 281/281 67/67
f 143/143 530/530 651/651
f 143/143 651/651 373/373
f 531/531 162/162 391/391
f 531/531 391/391 652/652
f 653/653 392/392 89/89
f 653/653 89/89 282/282
f 374/374 653/653 282/282
f 374/374 282/282 68/68
f 145/145 527/527 654/654
f 145/145 654/654 376/376
f 527/527 160/160 389/389
f 527/527 389/389 654/654
f 655/655 390/390 86/86
f 655/655 86/86 284/284
f 375/375 655/655 284/284
f 375/375 284/284 69/69
f 148/148 525/525 657/657
f 148/148 657/657 378/378
f 524/524 128/128 358/358
f 524/524 358/358 659/659
f 658/658 357/357 60/60
f 658/658 60/60 286/286
f 377/377 656/656 285/285
f 377/377 285/285 70/70
f 149/149 521/521 661/661
f 149/149 661/661 380/380
f 521/521 123/123 354/354
f 521/521 354/354 661/661
f 660/660 353/353 57/57
f 660/660 57/57 290/290
f 379/379 660/660 290/290
f 379/379 290/290 73/73
f 152/152 520/520 663/663
f 152/152 663/663 382/382
f 520/520 149/149 380/380
f 520/520 380/380 663/663
f 662/662 379/379 73/73
f 662/662 73/73 291/291
f 381/381 662/662 291/291
f 381/381 291/291 74/74
f 153/153 517/517 664/664
f 153/153 664/664 383/383
f 517/517 139/139 369/369
f 517/517 369/369 664/664
f 665/665 370/370 66/66
f 665/665 66/66 296/296
f 384/384 665/665 296/296
f 384/384 296/296 79/79
f 155/155 515/515 666/666
f 155/155 666/666 385/385
f 515/515 153/153 383/383
f 515/515 383/383 666/666
f 667/667 384/384 79/79
f 667/667 79/79 297/297
f 386/386 667/667 297/297
f 386/386 297/297 80/80
f 157/157 514/514 668/668
f 157/157 668/668 387/387
f 514/514 148/148 378/378
f 514/514 378/378 668/668
f 669/669 377/377 70/70
f 669/669 70/70 314/314
f 388/388 669/669 314/314
f 388/388 314/314 85/85
f 160/160 512/512 671/671
f 160/160 671/671 389/389
f 512/512 173/173 404/404
f 512/512 404/404 671/671
f 670/670 403/403 103/103
f 670/670 103/103 315/315
f 390/390 670/670 315/315
f 390/390 315/315 86/86
f 179/179 509/509 673/673
f 179/179 673/673 422/422
f 509/509 176/176 406/406
f 509/509 406/406 673/673
f 672/672 405/405 105/105
f 672/672 105/105 414/414
f 421/421 672/672 414/414
f 421/421 414/414 116/116
f 163/163 505/505 674/674
f 163/163 674/674 393/393
f 506/506 142/142 371/371
f 506/506 371/371 675/675
f 676/676 372/372 67/67
f 676/676 67/67 325/325
f 394/394 676/676 325/325
f 394/394 325/325 93/93
f 166/166 504/504 678/678
f 166/166 678/678 396/396
f 504/504 126/126 356/356
f 504/504 356/356 678/678
f 677/677 355/355 58/58
f 677/677 58/58 329/329
f 395/395 677/677 329/329
f 395/395 329/329 95/95
f 168/168 502/502 680/680
f 168/168 680/680 398/398
f 502/502 130/130 360/360
f 502/502 360/360 680/680
f 679/679 359/359 61/61
f 679/679 61/61 330/330
f 397/397 679/679 330/330
f 397/397 330/330 96/96
f 169/169 499/499 681/681
f 169/169 681/681 399/399
f 499/499 135/135 365/365
f 499/499 365/365 681/681
f 682/682 366/366 64/64
f 682/682 64/64 336/336
f 400/400 682/682 336/336
f 400/400 336/336 99/99
f 171/171 497/497 683/683
f 171/171 683/683 401/401
f 497/497 137/137 367/367
f 497/497 367/367 683/683
f 684/684 368/368 65/65
f 684/684 65/65 337/337
f 402/402 684/684 337/337
f 402/402 337/337 100/100
f 178/178 495/495 685/685
f 178/178 685/685 420/420
f 495/495 163/163 393/393
f 495/495 393/393 685/685
f 686/686 394/394 93/93
f 686/686 93/93 417/417
f 419/419 686/686 417/417
f 419/419 417/417 120/120
f 176/176 494/494 688/688
f 176/176 688/688 406/406
f 494/494 157/157 387/387
f 494/494 387/387 688/688
f 687/687 388/388 85/85
f 687/687 85/85 345/345
f 405/405 687/687 345/345
f 405/405 345/345 105/105
f 173/173 492/492 690/690
f 173/173 690/690 404/404
f 492/492 178/178 420/420
f 492/492 420/420 690/690
f 689/689 419/419 120/120
f 689/689 120/120 344/344
f 403/403 689/689 344/344
f 403/403 344/344 103/103
f 162/162 490/490 691/691
f 162/162 691/691 391/391
f 490/490 179/179 422/422
f 490/490 422/422 691/691
f 692/692 421/421 116/116
f 692/692 116/116 321/321
f 392/392 692/692 321/321
f 392/392 321/321 89/89
f 91/91 328/328 693/693
f 91/91 693/693 323/323
f 328/328 92/92 324/324
f 328/328 324/324 693/693
f 693/693 324/324 118/118
f 693/693 118/118 423/423
f 323/323 693/693 423/423
f 323/323 423/423 117/117
f 94/94 327/327 694/694
f 94/94 694/694 418/418
f 327/327 91/91 323/323
f 327/327 323/323 694/694
f 694/694 323/323 117/117
f 694/694 117/117 424/424
f 418/418 694/694 424/424
f 418/418 424/424 119/119
f 92/92 326/326 695/695
f 92/92 695/695 324/324
f 326/326 90/90 322/322
f 326/326 322/322 695/695
f 695/695 322/322 115/115
f 695/695 115/115 425/425
f 324/324 695/695 425/425
f 324/324 425/425 118/118
f 37/37 237/237 696/696
f 37/37 696/696 243/243
f 237/237 111/111 426/426
f 237/237 426/426 696/696
f 696/696 426/426 112/112
f 696/696 112/112 238/238
f 243/243 696/696 238/238
f 243/243 238/238 38/38
f 39/39 411/411 697/697
f 39/39 697/697 242/242
f 411/411 114/114 427/427
f 411/411 427/427 697/697
f 697/697 427/427 111/111
f 697/697 111/111 237/237
f 242/242 697/697 237/237
f 242/242 237/237 37/37
f 38/38 238/238 698/698
f 38/38 698/698 241/241
f 238/238 112/112 428/428
f 238/238 428/428 698/698
f 698/698 428/428 110/110
f 698/698 110/110 235/235
f 241/241 698/698 235/235
f 241/241 235/235 35/35
f 36/36 236/236 699/699
f 36/36 699/699 469/469
f 236/236 109/109 488/488
f 236/236 488/488 699/699
f 700/700 487/487 180/180
f 700/700 180/180 489/489
f 470/470 700/700 489/489
f 470/470 489/489 161/161
f 49/49 258/258 702/702
f 49/49 702/702 482/482
f 258/258 113/113 486/486
f 258/258 486/486 702/702
f 701/701 485/485 177/177
f 701/701 177/177 491/491
f 481/481 701/701 491/491
f 481/481 491/491 174/174
f 51/51 260/260 704/704
f 51/51 704/704 484/484
f 260/260 31/31 466/466
f 260/260 466/466 704/704
f 703/703 465/465 158/158
f 703/703 158/158 493/493
f 483/483 703/703 493/493
f 483/483 493/493 175/175
f 113/113 412/412 705/705
f 113/113 705/705 486/486
f 412/412 40/40 471/471
f 412/412 471/471 705/705
f 706/706 472/472 164/164
f 706/706 164/164 496/496
f 485/485 706/706 496/496
f 485/485 496/496 177/177
f 46/46 252/252 708/708
f 46/46 708/708 480/480
f 252/252 11/11 446/446
f 252/252 446/446 708/708
f 707/707 445/445 138/138
f 707/707 138/138 498/498
f 479/479 707/707 498/498
f 479/479 498/498 172/172
f 45/45 251/251 710/710
f 45/45 710/710 478/478
f 251/251 10/10 444/444
f 251/251 444/444 710/710
f 709/709 443/443 136/136
f 709/709 136/136 500/500
f 477/477 709/709 500/500
f 477/477 500/500 170/170
f 42/42 245/245 711/711
f 42/42 711/711 475/475
f 245/245 7/7 437/437
f 245/245 437/437 711/711
f 712/712 438/438 129/129
f 712/712 129/129 501/501
f 476/476 712/712 501/501
f 476/476 501/501 167/167
f 41/41 244/244 713/713
f 41/41 713/713 473/473
f 244/244 4/4 433/433
f 244/244 433/433 713/713
f 714/714 434/434 125/125
f 714/714 125/125 503/503
f 474/474 714/714 503/503
f 474/474 503/503 165/165
f 40/40 240/240 715/715
f 40/40 715/715 471/471
f 240/240 13/13 449/449
f 240/240 449/449 715/715
f 717/717 450/450 141/141
f 717/717 141/141 508/508
f 472/472 716/716 507/507
f 472/472 507/507 164/164
f 109/109 407/407 719/719
f 109/109 719/719 488/488
f 407/407 51/51 484/484
f 407/407 484/484 719/719
f 718/718 483/483 175/175
f 718/718 175/175 510/510
f 487/487 718/718 510/510
f 487/487 510/510 180/180
f 32/32 228/228 721/721
f 32/32 721/721 468/468
f 228/228 49/49 482/482
f 228/228 482/482 721/721
f 720/720 481/481 174/174
f 720/720 174/174 511/511
f 467/467 720/720 511/511
f 467/467 511/511 159/159
f 31/31 227/227 723/723
f 31/31 723/723 466/466
f 227/227 16/16 455/455
f 227/227 455/455 723/723
f 722/722 456/456 147/147
f 722/722 147/147 513/513
f 465/465 722/722 513/513
f 465/465 513/513 158/158
f 26/26 210/210 725/725
f 26/26 725/725 464/464
f 210/210 25/25 462/462
f 210/210 462/462 725/725
f 724/724 461/461 154/154
f 724/724 154/154 516/516
f 463/463 724/724 516/516
f 463/463 516/516 156/156
f 25/25 209/209 727/727
f 25/25 727/727 462/462
f 209/209 12/12 448/448
f 209/209 448/448 727/727
f 726/726 447/447 140/140
f 726/726 140/140 518/518
f 461/461 726/726 518/518
f 461/461 518/518 154/154
f 20/20 204/204 728/728
f 20/20 728/728 459/459
f 204/204 19/19 457/457
f 204/204 457/457 728/728
f 729/729 458/458 150/150
f 729/729 150/150 519/519
f 460/460 729/729 519/519
f 460/460 519/519 151/151
f 19/19 203/203 730/730
f 19/19 730/730 457/457
f 203/203 3/3 431/431
f 203/203 431/431 730/730
f 731/731 432/432 124/124
f 731/731 124/124 522/522
f 458/458 731/731 522/522
f 458/458 522/522 150/150
f 16/16 199/199 732/732
f 16/16 732/732 455/455
f 199/199 6/6 435/435
f 199/199 435/435 732/732
f 733/733 436/436 127/127
f 733/733 127/127 523/523
f 456/456 733/733 523/523
f 456/456 523/523 147/147
f 15/15 198/198 735/735
f 15/15 735/735 453/453
f 198/198 32/32 468/468
f 198/198 468/468 735/735
f 734/734 467/467 159/159
f 734/734 159/159 526/526
f 454/454 734/734 526/526
f 454/454 526/526 146/146
f 14/14 196/196 736/736
f 14/14 736/736 451/451
f 196/196 36/36 469/469
f 196/196 469/469 736/736
f 738/738 470/470 161/161
f 738/738 161/161 529/529
f 452/452 737/737 528/528
f 452/452 528/528 144/144
f 13/13 194/194 739/739
f 13/13 739/739 449/449
f 194/194 1/1 429/429
f 194/194 429/429 739/739
f 741/741 430/430 122/122
f 741/741 122/122 534/534
f 450/450 740/740 535/535
f 450/450 535/535 141/141
f 9/9 193/193 743/743
f 9/9 743/743 442/442
f 193/193 46/46 480/480
f 193/193 480/480 743/743
f 742/742 479/479 172/172
f 742/742 172/172 537/537
f 441/441 742/742 537/537
f 441/441 537/537 134/134
f 12/12 192/192 745/745
f 12/12 745/745 448/448
f 192/192 45/45 478/478
f 192/192 478/478 745/745
f 744/744 477/477 170/170
f 744/744 170/170 539/539
f 447/447 744/744 539/539
f 447/447 539/539 140/140
f 11/11 191/191 747/747
f 11/11 747/747 446/446
f 191/191 26/26 464/464
f 191/191 464/464 747/747
f 746/746 463/463 156/156
f 746/746 156/156 541/541
f 445/445 746/746 541/541
f 445/445 541/541 138/138
f 7/7 190/190 749/749
f 7/7 749/749 437/437
f 190/190 9/9 442/442
f 190/190 442/442 749/749
f 748/748 441/441 134/134
f 748/748 134/134 543/543
f 438/438 748/748 543/543
f 438/438 543/543 129/129
f 10/10 189/189 751/751
f 10/10 751/751 444/444
f 189/189 8/8 439/439
f 189/189 439/439 751/751
f 750/750 440/440 131/131
f 750/750 131/131 545/545
f 443/443 750/750 545/545
f 443/443 545/545 136/136
f 1/1 187/187 752/752
f 1/1 752/752 429/429
f 187/187 42/42 475/475
f 187/187 475/475 752/752
f 753/753 476/476 167/167
f 753/753 167/167 546/546
f 430/430 753/753 546/546
f 430/430 546/546 122/122
f 8/8 186/186 754/754
f 8/8 754/754 439/439
f 186/186 41/41 473/473
f 186/186 473/473 754/754
f 755/755 474/474 165/165
f 755/755 165/165 548/548
f 440/440 755/755 548/548
f 440/440 548/548 131/131
f 4/4 184/184 756/756
f 4/4 756/756 433/433
f 184/184 14/14 451/451
f 184/184 451/451 756/756
f 758/758 452/452 144/144
f 758/758 144/144 550/550
f 434/434 757/757 551/551
f 434/434 551/551 125/125
f 6/6 183/183 759/759
f 6/6 759/759 435/435
f 183/183 20/20 459/459
f 183/183 459/459 759/759
f 760/760 460/460 151/151
f 760/760 151/151 554/554
f 436/436 760/760 554/554
f 436/436 554/554 127/127
f 3/3 182/182 761/761
f 3/3 761/761 431/431
f 182/182 15/15 453/453
f 182/182 453/453 761/761
f 762/762 454/454 146/146
f 762/762 146/146 558/558
f 432/432 762/762 558/558
f 432/432 558/558 124/124

